<?xml version="1.0" encoding="UTF-8" standalone="no"?>
<svg
   xmlns:dc="http://purl.org/dc/elements/1.1/"
   xmlns:cc="http://creativecommons.org/ns#"
   xmlns:rdf="http://www.w3.org/1999/02/22-rdf-syntax-ns#"
   xmlns:svg="http://www.w3.org/2000/svg"
   xmlns="http://www.w3.org/2000/svg"
   id="svg1650"
   version="1.1"
   viewBox="0 0 150.84576 150.84576"
   height="150.84576mm"
   width="150.84576mm">
  <defs
     id="defs1644" />
  <metadata
     id="metadata1647">
    <rdf:RDF>
      <cc:Work
         rdf:about="">
        <dc:format>image/svg+xml</dc:format>
        <dc:type
           rdf:resource="http://purl.org/dc/dcmitype/StillImage" />
        <dc:title></dc:title>
      </cc:Work>
    </rdf:RDF>
  </metadata>
  <g
     transform="translate(-29.404084,-11.639487)"
     id="layer1">
    <g
       id="g2228">
      <path
         style="fill:#ffffff;fill-opacity:1;fill-rule:nonzero;stroke:#000000;stroke-width:4.44999981;stroke-linecap:square;stroke-linejoin:round;stroke-miterlimit:4;stroke-dasharray:none;stroke-opacity:1"
         d="m 178.02356,87.062367 c 0,74.300933 1.10433,73.196603 -73.1966,73.196603 -74.30092,0 -73.19659,1.10433 -73.19659,-73.196603 0,-74.30093 -1.10433,-73.19659 73.19659,-73.196594 74.30093,-4e-6 73.1966,-1.104336 73.1966,73.196594 z"
         id="path2209" />
      <path
         id="path1631"
         d="m 57.5421,160.14407 c -0.48772,-0.16613 -0.97312,-0.53552 -1.07868,-0.82086 -0.10556,-0.28535 -0.38816,-0.59413 -0.62799,-0.68616 -0.39361,-0.15104 -0.42793,-0.70291 -0.35242,-5.66725 0.24752,-6.38212 -0.8009,-13.10368 -0.9122,-16.50347 -0.43991,-15.35532 0.41189,-4.39211 0.31283,-22.89481 -0.39898,-6.77958 0.0162,-12.67275 -0.23868,-20.58314 0.0933,-20.29089 -0.45691,-36.808043 4.31978,-59.15388 5.38847,-0.271111 9.70937,-0.722338 14.09256,-1.141067 1.18866,-0.202452 2.85928,-0.458773 3.44183,-0.528072 0.26396,-0.0314 1.01596,-0.916117 1.74232,-2.049836 2.42836,-3.790444 3.07464,-4.197939 6.98433,-4.403837 11.48894,-0.790963 24.2432,-1.009739 35.34085,-1.080194 9.40061,-0.05174 9.76162,-0.09993 10.3388,-1.379862 3.72712,-4.122798 4.60936,-4.929388 8.08708,-5.533345 2.18513,-0.373592 2.44717,-0.327087 6.28403,-0.06981 5.475,0.640193 12.66639,2.841558 15.58538,7.426627 1.00628,2.922983 0.87821,5.750937 0.4504,8.966455 -0.15396,0.574541 -0.70985,2.124097 -1.54545,2.895581 -1.1865,1.095468 -2.09391,2.034265 -3.32487,2.377615 -2.72192,0.759223 -9.53924,0.91911 -12.13509,0.45422 -3.7767,-1.003088 -6.91965,-2.373522 -8.72493,-4.283839 -0.94674,-1.626787 -3.3264,-1.077212 -4.35715,-0.138686 -0.33772,-0.280278 0.066,0.05686 0.19535,2.770682 0.43805,5.795143 -0.0938,11.169576 -0.37999,16.511318 -0.15276,1.116284 -0.20326,2.368749 -0.11222,2.783253 0.42686,1.943465 -0.40978,2.779566 -2.61945,2.617763 -0.96472,-0.07064 -1.11191,-0.179764 -1.6231,-1.203308 -0.5371,-1.075444 0.30981,-1.294907 0.4563,-6.082017 -0.10266,-4.677036 1.25911,-13.08621 -1.75562,-16.866877 -0.73099,-0.894794 -0.70157,-0.750881 -2.51638,-0.929016 -1.7084,2.7356 -2.44517,7.106544 -2.47578,11.096376 0.38961,5.809009 0.72451,10.595637 4.23787,15.405728 0.13393,0.169164 0.29987,0.914344 0.36876,1.655955 0.0689,1.293428 -0.56646,3.008951 -2.05071,3.085168 -2.92981,-0.314616 -3.41318,-3.918606 -4.80678,-7.265402 -1.08243,-5.587889 -3.16524,-17.554253 -1.53494,-23.060483 -0.80493,-0.31385 -2.06698,-0.558334 -3.03319,-0.195924 -0.44148,0.318399 -4.25084,0.720555 -7.37768,0.77887 -1.63759,0.03054 -4.43379,-0.13649 -6.21378,-0.371173 -3.51489,-0.46342 -5.37732,-0.524479 -8.11442,-0.266017 -1.7358,0.163913 -1.76862,0.180687 -1.64219,0.839611 1.74677,6.880439 1.52469,8.654059 2.68083,16.336245 0.0809,0.2136 0.11412,1.728207 0.0738,3.365796 -0.10563,4.292256 -0.5937,4.943949 -0.40452,6.359633 -0.32216,2.584125 -1.06402,7.881904 -2.04385,8.398168 -0.3282,0.124786 -0.66419,0.336013 -0.74663,0.469396 -0.0824,0.133382 -0.43466,0.242514 -0.78273,0.242514 -3.95608,-2.204373 -0.60747,-8.858392 -0.91797,-11.88008 0.74073,-5.841974 -0.75799,-11.493384 -1.36338,-17.351135 -0.34312,-2.709279 -2.03463,-6.839197 -2.69705,-6.585001 -0.17578,0.06745 -0.36012,0.0011 -0.40962,-0.147366 -0.0583,-0.174913 -0.61392,-0.204551 -1.57751,-0.08417 -1.66053,0.207471 -1.79741,0.352462 -2.39567,2.537662 -3.37809,10.815046 -4.00708,23.513649 -1.8008,33.963168 0.92808,4.334095 0.83902,5.229747 -0.58395,5.872986 -1.0042,0.453937 -2.3705,0.374053 -2.50649,-0.146547 -3.91878,-23.814855 -1.15783,-26.379397 1.24131,-40.715924 0.15618,-0.993598 0.12026,-1.084765 -0.48737,-1.237271 -4.4423,0.346147 -8.8142,0.684665 -13.44564,0.75646 -1.56228,11.863168 -2.96906,25.251259 -3.10447,34.564125 -0.8401,13.483908 -0.1449,24.811904 0.20017,35.988124 13.23973,-1.73201 26.42058,-2.62117 37.40138,-2.65221 9.28047,-0.37044 16.83966,0.71105 25.84382,-0.76349 0.53467,-0.38277 4.91436,1.52611 5.19813,2.26561 0.38216,0.99589 -1.72465,2.05686 -4.57245,2.30264 -15.18013,1.74524 -31.30716,-0.60458 -46.99167,1.05967 -5.21634,0.5572 -11.09155,0.64983 -16.64627,1.80216 -0.1889,22.3874 -1.55838,3.85997 -0.0479,26.00037 0.13456,1.99359 0.37759,4.73153 0.54006,6.08432 0.25934,2.15931 0.31763,5.24066 0.25997,13.74056 -0.0122,1.79254 -0.10347,2.29516 -0.47493,2.61444 -0.69077,0.59374 -1.1464,0.66503 -2.12336,0.33225 z M 113.18776,32.6304 c 4.46804,-0.377688 6.69182,-0.308578 5.80724,-3.172634 -7.22113,-2.349696 -18.09612,-1.099736 -26.00201,-0.394324 -2.55028,0.09805 -7.26903,-0.254371 -5.90012,2.161622 0.56599,0.983439 0.58849,0.993636 2.57434,1.166865 7.21533,0.481083 16.25108,0.913609 23.52055,0.238471 z m 39.26989,4.416477 c 1.21038,-0.09128 4.47228,-0.973538 5.11092,-1.644149 2.13303,-2.239766 1.60571,-6.456479 1.55924,-6.728709 -0.3441,-2.015847 -2.20115,-3.699935 -2.41474,-3.699935 -4.45538,-3.006634 -10.15107,-4.535951 -13.77469,-4.482665 -0.50044,-0.197394 -3.38578,0.01375 -3.85047,0.09432 -4.35649,1.058786 -3.24251,0.744062 -4.256,4.844575 0.24192,5.199324 -0.43493,3.305604 1.6146,6.983166 2.79164,2.524077 1.6812,1.958936 5.32619,3.972245 4.51486,1.208686 6.87564,0.948441 10.68495,0.661162 z"
         style="display:inline;opacity:1;fill:#000000;stroke-width:0.25890726" />
    </g>
  </g>
</svg>
