<?xml version="1.0" encoding="UTF-8" standalone="no"?>
<svg
   xmlns:dc="http://purl.org/dc/elements/1.1/"
   xmlns:cc="http://creativecommons.org/ns#"
   xmlns:rdf="http://www.w3.org/1999/02/22-rdf-syntax-ns#"
   xmlns:svg="http://www.w3.org/2000/svg"
   xmlns="http://www.w3.org/2000/svg"
   viewBox="0 0 632.38007 563.94788"
   height="563.94788"
   width="632.38007"
   id="svg869"
   version="1.1">
  <metadata
     id="metadata875">
    <rdf:RDF>
      <cc:Work
         rdf:about="">
        <dc:format>image/svg+xml</dc:format>
        <dc:type
           rdf:resource="http://purl.org/dc/dcmitype/StillImage" />
        <dc:title></dc:title>
      </cc:Work>
    </rdf:RDF>
  </metadata>
  <defs
     id="defs873" />
  <g
     style="display:none"
     transform="translate(-998.98784,299.45522)"
     id="g1019">
    <path
       id="circle930"
       d="m 412.28172,385.944 a 56.364305,56.364305 0 0 1 -76.99507,-20.63077 56.364305,56.364305 0 0 1 20.63077,-76.99507 56.364305,56.364305 0 0 1 76.99507,20.63077 56.364305,56.364305 0 0 1 -20.63077,76.99507 z"
       style="fill:#61dafb;stroke-width:27.4947834" />
    <path
       style="display:inline;fill:none;stroke:#61dafb;stroke-width:27.4947834"
       d="m 384.4403,221.98402 c -81.44274,0 -142.78552,12.71881 -169.20117,19.33203 13.40702,51.68696 37.11377,98.50183 68.85267,153.55504 83.51742,144.65634 195.99637,236.07254 251.22851,204.1836 55.23363,-31.88695 32.30476,-175.00503 -51.21289,-319.66211 -13.27345,-22.96046 -27.04947,-34.51832 -42.13978,-55.36754 -17.66555,-1.26244 -36.88955,-2.04102 -57.52734,-2.04102 z"
       id="ellipse932" />
    <path
       style="display:inline;fill:none;stroke:#61dafb;stroke-width:27.4947834"
       d="m 380.30546,221.98325 c -19.29213,0 -37.43165,0.72582 -54.2793,1.9043 -16.08612,21.89799 -27.84883,31.17439 -41.93436,55.50503 -83.51764,144.65708 -106.44651,287.77515 -51.21289,319.66211 55.23214,31.88895 167.71109,-59.52725 251.22851,-204.1836 32.47413,-56.33668 53.59045,-100.9648 66.78007,-153.51675 -25.61249,-6.54901 -86.46762,-19.37109 -170.58203,-19.37109 z"
       id="ellipse934" />
    <path
       style="display:inline;fill:none;stroke:#61dafb;stroke-width:27.4947834"
       d="M 81.656957,337.13109 A 115.47808,302.44261 89.999999 0 1 384.09957,221.653 115.47808,302.44261 89.999999 0 1 686.54218,337.13107 115.47808,302.44261 89.999999 0 1 384.09957,452.60916 115.47808,302.44261 89.999999 0 1 81.656957,337.13109 Z"
       id="ellipse936" />
  </g>
  <path
     id="path928"
     d="m -494.93182,526.42065 -10.29288,-2.9997 c 1.77769,-0.13971 -2.26367,9.37144 -3.37075,16.14482 -2.72234,14.54754 -2.60438,27.41055 -8.55925,40.95919 -1.40858,7.50297 -14.22669,21.14791 -6.26717,29.2836 0.83899,0.24763 1.76571,0.23625 2.05955,-0.0261 0.29388,-0.26257 1.25358,-0.53163 2.13355,-0.59805 2.72954,-0.54463 8.29905,-12.7814 10.91982,-18.77839 0.55454,-3.54642 2.19578,-4.76787 5.5141,-15.03546 1.26598,-3.91729 2.26682,-7.59083 2.22449,-8.1632 2.69754,-19.33696 4.93663,-22.95997 5.63856,-40.7865 z"
     style="display:none;opacity:1;fill:#000000;stroke-width:0.65068215" />
  <path
     id="path926"
     d="m -386.6892,549.68681 -14.29137,-2.07937 c 4.56605,11.26206 -4.55108,27.83945 -7.64213,39.18298 -3.76994,11.43089 -5.96713,11.35602 -5.4405,14.3309 0.50121,2.83129 0.77722,3.19832 3.0515,4.0571 5.20917,1.96716 7.82282,0.55102 8.18147,-4.43704 0.0764,-1.06378 1.09144,-4.04603 2.25591,-6.62701 4.50243,-12.66769 9.62098,-25.23882 12.70193,-39.51596 0.76127,-3.10619 1.015,-4.33541 1.18333,-4.91155 z"
     style="display:none;opacity:1;fill:#000000;stroke-width:0.65068215" />
  <path
     id="path1631"
     d="m -344.28814,515.73354 c -1.97394,-0.57667 -3.50574,-0.81655 -6.2719,-1.14598 -8.81134,-1.02697 -11.51361,0.28746 -23.43775,7.56172 -2.30441,2.67229 -3.20916,2.52965 -25.89872,-4.05567 -26.79215,-7.75149 -57.68121,-16.3267 -85.93066,-22.62133 -9.56823,-2.29408 -11.41631,-1.77483 -19.97343,5.6256 -6.39354,5.48055 -5.47187,4.13323 -10.53734,15.67479 -16.01445,32.83417 -24.49813,37.04255 -32.05369,97.2262 -0.0444,1.35154 3.19175,2.51968 5.93558,2.1426 3.88804,-0.53432 4.74098,-2.6292 5.59818,-13.73551 2.14226,-26.75491 12.72313,-56.90585 28.5829,-80.55558 3.00139,-4.83863 3.43398,-5.09009 7.58338,-4.4048 2.25483,0.38151 3.43451,1.32649 15.48622,4.47985 14.98747,4.8663 19.4009,5.43214 27.53989,9.05764 4.12172,1.83605 10.74046,4.23443 14.70836,5.32974 7.57626,2.09176 17.04312,3.84176 18.33417,3.38988 2.58698,-0.18363 5.45342,1.3061 7.16909,2.63655 -7.85874,12.10468 -11.38042,42.42669 -12.76075,56.66438 0.96938,9.05953 -0.43937,18.08923 6.3961,20.93865 3.63094,0.8758 6.38719,-2.80432 7.14453,-5.97027 0.36289,-1.8363 0.49576,-3.75057 0.29344,-4.25389 -5.03278,-14.09859 -2.42373,-25.87148 0.78379,-40.14752 2.92158,-9.5924 7.81712,-19.59969 13.88648,-24.97226 4.246,1.7247 4.2652,-0.27678 13.80142,1.50501 10.41428,2.90544 15.32765,4.26722 16.4478,8.86296 2.98657,5.89182 9.58218,11.43703 17.96693,16.54991 5.92347,2.97313 22.4656,7.45434 29.56643,7.5677 3.21135,0.051 6.06788,-1.5635 9.709,-3.35629 2.56418,-1.26266 5.00949,-4.59968 5.79062,-5.87428 3.32602,-7.44303 5.65262,-14.16558 5.31418,-21.92735 -3.76114,-13.13208 -19.51893,-23.57056 -32.255,-29.02117 -4.53102,-1.67934 -6.94561,-2.59385 -8.91949,-3.17093 z m -0.48703,7.62682 c 0.83405,0.26469 1.47768,0.51788 1.74397,0.726 8.76978,2.45809 21.40299,10.20916 29.99294,20.63442 0.51442,0.1531 3.7871,5.53628 3.17748,10.63947 -0.0823,0.68917 -1.82206,11.22595 -8.56076,15.10059 -2.01762,1.16012 -10.50719,0.9574 -13.489,0.31336 -9.38437,-2.02679 -15.2591,-3.08415 -25.27583,-9.21938 -7.34623,-7.45313 -5.07295,-5.29815 -9.99832,-13.373 -2.31375,-10.32469 -2.03442,-5.27898 1.09374,-17.9804 5.36904,-9.15758 2.45945,-9.19404 13.71294,-8.63578 0.88305,0.10361 5.10047,1.00065 7.60273,1.79481 z m -83.84242,-4.64474 c 8.09775,2.6274 15.59362,5.83116 21.48995,9.88731 0.0873,7.53292 -5.22313,5.77867 -16.25941,3.49961 -17.99911,-3.56194 -39.46242,-11.05392 -56.50582,-17.36338 -4.66171,-1.83489 -4.7086,-1.87616 -5.37052,-4.64995 -1.57412,-6.79892 9.5451,-2.58056 15.76051,-0.99645 12.22139,2.46451 27.38917,5.24391 40.88527,9.62288 z m 46.71008,34.23077 c -0.0761,-0.12232 -0.17612,0.13347 -0.27731,0.47985 l 0.58449,0.0846 c -0.15341,-0.22909 -0.23951,-0.45674 -0.30707,-0.56545 z m -118.52349,-33.83448 30.21955,8.95141 z"
     style="display:none;opacity:1;fill:#000000;stroke-width:0.65068215" />
  <circle
     id="circle852"
     r="56.364304"
     cy="281.97394"
     cx="316.19003"
     style="display:inline;fill:#61dafb;stroke-width:27.4947834" />
  <path
     id="path928-7"
     d="m 435.45981,171.84959 -10.29288,-2.9997 c 1.77769,-0.13971 -2.26367,9.37144 -3.37075,16.14482 -2.72234,14.54754 -2.60438,27.41055 -8.55925,40.95919 -1.40858,7.50297 -14.22669,21.1479 -6.26717,29.28359 0.83899,0.24763 1.76571,0.23625 2.05955,-0.0261 0.29388,-0.26257 1.25358,-0.53163 2.13355,-0.59805 2.72954,-0.54463 8.29905,-12.7814 10.91982,-18.77838 0.55454,-3.54642 2.19578,-4.76787 5.5141,-15.03546 1.26598,-3.91729 2.26682,-7.59083 2.22449,-8.1632 2.69754,-19.33696 4.93663,-22.95997 5.63856,-40.7865 z"
     style="display:inline;opacity:1;fill:#000000;stroke-width:0.65068215" />
  <path
     id="path926-5"
     d="m 543.70243,195.11575 -14.29137,-2.07937 c 4.56605,11.26206 -4.55108,27.83945 -7.64213,39.18298 -3.76994,11.43088 -5.96713,11.35601 -5.4405,14.33089 0.50121,2.83129 0.77722,3.19832 3.0515,4.0571 5.20917,1.96716 7.82282,0.55102 8.18147,-4.43704 0.0764,-1.06378 1.09144,-4.04603 2.25591,-6.627 4.50243,-12.66769 9.62098,-25.23882 12.70193,-39.51596 0.76127,-3.10619 1.015,-4.33541 1.18333,-4.91155 z"
     style="display:inline;opacity:1;fill:#000000;stroke-width:0.65068215" />
  <ellipse
     cy="281.97394"
     cx="316.19003"
     rx="302.44263"
     ry="115.47808"
     id="ellipse854"
     style="display:inline;fill:none;stroke:#61dafb;stroke-width:27.4947834" />
  <ellipse
     cy="-132.8416"
     cx="402.2916"
     rx="302.44263"
     ry="115.47808"
     transform="rotate(59.999999)"
     id="ellipse856"
     style="display:inline;fill:none;stroke:#61dafb;stroke-width:27.4947834" />
  <ellipse
     cy="-414.81555"
     cx="86.101585"
     rx="302.4426"
     ry="115.47808"
     transform="rotate(120)"
     id="ellipse858"
     style="display:inline;fill:none;stroke:#61dafb;stroke-width:27.4947834" />
  <g
     id="g1151">
    <g
       id="g1143">
      <path
         id="path1631-3"
         d="m 586.10349,161.16248 c -1.97394,-0.57667 -3.50574,-0.81655 -6.2719,-1.14598 -8.81134,-1.02697 -11.51361,0.28746 -23.43775,7.56172 -2.30441,2.67229 -3.20916,2.52965 -25.89872,-4.05567 -26.79215,-7.75149 -57.68121,-16.3267 -85.93066,-22.62134 -9.56823,-2.29408 -11.41631,-1.77483 -19.97343,5.62561 -6.39354,5.48055 -5.47187,4.13323 -10.53734,15.67479 -16.01445,32.83417 -24.49813,37.04255 -32.05369,97.22619 -0.0444,1.35154 3.19175,2.51968 5.93558,2.1426 3.88804,-0.53432 4.74098,-2.6292 5.59818,-13.73551 2.14226,-26.7549 12.72313,-56.90584 28.5829,-80.55557 3.00139,-4.83863 3.43398,-5.09009 7.58338,-4.4048 2.25483,0.38151 3.43451,1.32649 15.48622,4.47985 14.98747,4.8663 19.4009,5.43214 27.53989,9.05764 4.12172,1.83605 10.74046,4.23443 14.70836,5.32974 7.57626,2.09176 17.04312,3.84176 18.33417,3.38988 2.58698,-0.18363 5.45342,1.3061 7.16909,2.63655 -7.85874,12.10468 -11.38042,42.42669 -12.76075,56.66437 0.96938,9.05953 -0.43937,18.08923 6.3961,20.93865 3.63094,0.8758 6.38719,-2.80432 7.14453,-5.97027 0.36289,-1.8363 0.49576,-3.75057 0.29344,-4.25389 -5.03278,-14.09859 -2.42373,-25.87147 0.78379,-40.14751 2.92158,-9.5924 7.81712,-19.59969 13.88648,-24.97226 4.246,1.7247 4.2652,-0.27678 13.80142,1.50501 10.41428,2.90544 15.32765,4.26722 16.4478,8.86296 2.98657,5.89182 9.58218,11.43703 17.96693,16.54991 5.92347,2.97313 22.4656,7.45434 29.56643,7.5677 3.21135,0.051 6.06788,-1.5635 9.709,-3.35629 2.56418,-1.26266 5.00949,-4.59968 5.79062,-5.87428 3.32602,-7.44303 5.65262,-14.16558 5.31418,-21.92735 -3.76114,-13.13208 -19.51893,-23.57056 -32.255,-29.02117 -4.53102,-1.67934 -6.94561,-2.59385 -8.91949,-3.17093 z m -0.48703,7.62682 c 0.83405,0.26469 1.47768,0.51788 1.74397,0.726 8.76978,2.45809 21.40299,10.20916 29.99294,20.63442 0.51442,0.1531 3.7871,5.53628 3.17748,10.63947 -0.0823,0.68917 -1.82206,11.22595 -8.56076,15.10059 -2.01762,1.16012 -10.50719,0.9574 -13.489,0.31336 -9.38437,-2.02679 -15.2591,-3.08415 -25.27583,-9.21938 -7.34623,-7.45313 -5.07295,-5.29815 -9.99832,-13.373 -2.31375,-10.32469 -2.03442,-5.27898 1.09374,-17.9804 5.36904,-9.15758 2.45945,-9.19404 13.71294,-8.63578 0.88305,0.10361 5.10047,1.00065 7.60273,1.79481 z m -83.84242,-4.64474 c 8.09775,2.6274 15.59362,5.83116 21.48995,9.88731 0.0873,7.53292 -5.22313,5.77867 -16.25941,3.49961 -17.99911,-3.56194 -39.46242,-11.05392 -56.50582,-17.36338 -4.66171,-1.83489 -4.7086,-1.87616 -5.37052,-4.64995 -1.57412,-6.79892 9.5451,-2.58056 15.76051,-0.99645 12.22139,2.46451 27.38917,5.24391 40.88527,9.62288 z m 46.71008,34.23077 c -0.0761,-0.12232 -0.17612,0.13347 -0.27731,0.47985 l 0.58449,0.0846 c -0.15341,-0.22909 -0.23951,-0.45674 -0.30707,-0.56545 z m -118.52349,-33.83448 30.21955,8.95141 z"
         style="display:inline;opacity:1;fill:#000000;stroke-width:0.65068215" />
      <path
         id="path1117"
         d="m 497.42099,175.31996 c -6.89687,-1.76 -13.57005,-3.71112 -21.63691,-6.32626 -1.94728,-0.63127 -2.62925,-0.68368 -2.5914,-0.80778 0.0531,-0.174 -25.94292,-8.44642 -26.90706,-10.04926 -0.3553,-0.59068 -2.28611,-1.28157 -1.22433,-4.67324 1.06177,-3.39166 4.72821,-1.58833 6.19118,-1.42801 9.97474,2.41942 16.26796,3.69649 24.65716,5.54317 0.0753,-0.0834 0.55416,0.1126 5.20371,1.14409 6.21645,1.37907 11.88803,2.81492 16.39604,4.15092 2.32304,0.68846 5.09409,1.50806 5.17052,1.58079 0.0216,0.0206 4.72822,1.56966 9.64646,3.6482 5.41814,2.28982 11.08644,5.16211 10.87808,5.96659 -0.0761,0.29381 0.59472,5.44009 -4.01153,5.3912 -5.93675,-0.063 -6.9071,-0.92893 -10.58618,-1.55427 -4.45629,-0.96523 -8.5119,-1.95774 -8.6773,-1.95994 -0.0997,-0.001 -1.36602,-0.33467 -2.50844,-0.6262 z"
         style="fill:#ffffff;fill-opacity:0.97272728;fill-rule:nonzero;stroke:#e90000;stroke-width:0;stroke-linecap:square;stroke-linejoin:round;stroke-miterlimit:4;stroke-dasharray:none;stroke-opacity:1" />
    </g>
    <path
       style="fill:#ffffff;fill-opacity:0.97272728;fill-rule:nonzero;stroke:#e90000;stroke-width:0;stroke-linecap:square;stroke-linejoin:round;stroke-miterlimit:4;stroke-dasharray:none;stroke-opacity:1"
       d="m 601.41551,216.53836 c -1.56177,-0.12493 -2.6984,-0.32125 -5.84014,-1.00872 -4.39479,-0.96165 -8.50326,-2.02399 -9.18588,-2.37523 -4.73197,-1.45011 -8.97614,-3.70342 -11.49048,-5.08777 -2.3183,-1.27336 -5.22379,-4.88353 -5.83655,-5.49272 -1.00242,-0.99656 -1.87325,-2.21723 -3.08298,-4.32149 -0.60087,-1.0452 -1.46053,-2.52394 -1.91035,-3.2861 l -0.81786,-1.38574 -0.54718,-2.32657 c -0.79227,-3.36865 -0.8829,-3.82551 -0.94405,-4.75905 -0.0702,-1.07108 0.0236,-1.53922 0.97796,-4.88017 0.4064,-1.42276 0.93035,-3.34256 1.16433,-4.26622 0.36603,-1.44491 0.48609,-1.78427 0.85988,-2.43068 0.23894,-0.41321 1.01113,-1.86391 1.71598,-3.22378 1.4346,-2.76778 1.75846,-3.28854 2.40886,-3.8733 0.84157,-0.75664 1.6954,-0.94482 4.28838,-0.94513 2.87861,-3.5e-4 4.91247,0.14225 6.39743,0.44856 3.09419,0.63823 6.28364,1.5103 7.39116,2.02092 0.29168,0.13447 1.09971,0.42934 1.79563,0.65525 5.27768,1.71326 11.78259,5.29101 17.42883,9.58601 3.30012,2.51034 6.71937,5.63112 9.22656,8.42116 2.12724,2.36723 2.33063,2.6061 2.66782,3.13322 0.82949,1.2967 1.76844,3.67396 2.14791,5.43812 0.24502,1.13912 0.3869,2.72093 0.31658,3.52965 -0.20602,2.36934 -1.29731,6.01942 -2.60299,8.70625 -1.2886,2.65171 -2.84416,4.69657 -4.64062,6.10034 -1.43272,1.11954 -2.27178,1.41969 -4.552,1.6284 -1.17451,0.10749 -5.96989,0.10409 -7.33623,-0.005 z"
       id="path1145" />
  </g>
</svg>
