<?xml version="1.0" encoding="UTF-8" standalone="no"?>
<svg
   xmlns:dc="http://purl.org/dc/elements/1.1/"
   xmlns:cc="http://creativecommons.org/ns#"
   xmlns:rdf="http://www.w3.org/1999/02/22-rdf-syntax-ns#"
   xmlns:svg="http://www.w3.org/2000/svg"
   xmlns="http://www.w3.org/2000/svg"
   viewBox="0 0 820.67499 710.48822"
   height="710.48822"
   width="820.67499"
   id="svg869"
   version="1.1">
  <metadata
     id="metadata875">
    <rdf:RDF>
      <cc:Work
         rdf:about="">
        <dc:format>image/svg+xml</dc:format>
        <dc:type
           rdf:resource="http://purl.org/dc/dcmitype/StillImage" />
        <dc:title></dc:title>
      </cc:Work>
    </rdf:RDF>
  </metadata>
  <defs
     id="defs873" />
  <path
     style="display:inline;opacity:1;fill:#000000"
     d="m 21.18988,709.72367 c -1.88377,-0.64166 -3.75861,-2.06839 -4.16632,-3.17052 -0.4077,-1.10214 -1.4992,-2.29472 -2.42554,-2.65019 -1.52025,-0.58338 -1.6528,-2.71491 -1.36113,-21.8891 0.95597,-24.65022 -3.09341,-50.61147 -3.52328,-63.74279 -6.24482,-83.55184 -8.4091,-175.53549 -8.79172,-247 -1.54106,-26.18535 0.0628,-48.94709 -0.92189,-79.5 0.36015,-78.37128 -1.76476,-142.1669 16.68467,-228.475154 20.81232,-1.04714 37.50133,-2.78995 54.43088,-4.40724 4.59108,-0.78195 11.04366,-1.77196 13.29369,-2.03962 1.01953,-0.12129 3.92401,-3.538397 6.72952,-7.91726 9.37926,-14.640155 11.87547,-16.214058 26.97616,-17.009315 44.37475,-3.055004 93.63662,-3.900006 136.5,-4.172127 36.30885,-0.199873 37.70323,-0.385973 39.93248,-5.329561 14.39561,-15.9238383 17.80313,-19.0392053 31.23546,-21.3719183 8.43979,-1.44295796 9.4519,-1.26333696 24.27132,-0.26961496 21.1466,2.47267096 48.92255,10.97519926 60.19678,28.68450526 3.88665,11.289685 3.39198,22.212336 1.73961,34.631911 -0.59461,2.2191 -2.74169,8.20408 -5.9691,11.18385 -4.58274,4.23112 -8.08748,7.85712 -12.84194,9.18327 -10.5131,2.93241 -36.84424,3.54996 -46.87044,1.75437 -14.58704,-3.87431 -26.72635,-9.16746 -33.69902,-16.54584 -3.6567,-6.28328 -12.84787,-4.16061 -16.82902,-0.53566 -1.30439,-1.08254 0.25486,0.21958 0.75455,10.70145 1.69191,22.383074 -0.36242,43.141214 -1.46766,63.773084 -0.59003,4.31152 -0.78508,9.14902 -0.43344,10.75 1.64868,7.50641 -1.58275,10.73576 -10.11733,10.11081 -3.72613,-0.27285 -4.29465,-0.69432 -6.26903,-4.64764 -2.0745,-4.15378 1.19657,-5.00143 1.7624,-23.4911 -0.39652,-18.06452 4.86315,-50.543994 -6.78089,-65.146394 -2.82339,-3.45604 -2.70973,-2.90019 -9.71926,-3.58822 -6.59847,10.56595 -9.44418,27.44822 -9.56244,42.858494 1.50482,22.43663 2.79833,40.92444 16.36831,59.50287 0.51731,0.65338 1.15825,3.53155 1.42433,6.39594 0.26599,4.99572 -2.1879,11.62173 -7.92071,11.91611 -11.31605,-1.21517 -13.18297,-15.13517 -18.56564,-28.06179 -4.18072,-21.58259 -12.22537,-67.801304 -5.92852,-89.068494 -3.10894,-1.21221 -7.98344,-2.1565 -11.71531,-0.75673 -1.70524,1.22978 -16.41843,2.78306 -28.49548,3.00829 -6.325,0.11795 -17.125,-0.52717 -24,-1.43361 -13.57584,-1.78991 -20.76932,-2.02574 -31.34103,-1.02746 -6.70435,0.63309 -6.83107,0.69788 -6.34279,3.2429 6.74672,26.574914 5.88894,33.425324 10.35438,63.096894 0.3125,0.825 0.44081,6.675 0.28513,13 -0.40802,16.57835 -2.2931,19.09544 -1.56244,24.56336 -1.2443,9.98089 -4.10966,30.44296 -7.89413,32.43697 -1.26766,0.48197 -2.56535,1.29781 -2.88374,1.81299 -0.3184,0.51517 -1.67884,0.93668 -3.0232,0.93668 -15.27994,-8.51414 -2.34634,-34.21453 -3.5456,-45.88546 2.86099,-22.56396 -2.92763,-44.39189 -5.2659,-67.016784 -1.32524,-10.46428 -7.85852,-26.41562 -10.41706,-25.43382 -0.67895,0.26054 -1.39089,0.004 -1.58208,-0.56918 -0.2252,-0.67558 -2.37121,-0.79006 -6.09299,-0.32506 -6.41357,0.80133 -6.94225,1.36134 -9.25297,9.80143 -13.04749,41.771884 -15.47688,90.818794 -6.95543,131.178874 3.58462,16.73995 3.24066,20.1993 -2.25543,22.68374 -3.8786,1.75328 -9.1558,1.44474 -9.68101,-0.56602 -15.13585,-91.98219 -4.47199,-101.88744 4.79444,-157.260644 0.60321,-3.83766 0.4645,-4.18978 -1.88243,-4.77882 -17.15788,1.33695 -34.04386,2.64444 -51.93224,2.92174 C 22.60427,120.5912 17.17073,172.30118 16.6477,208.27107 c -3.24475,52.08006 -0.55964,95.83316 0.77314,139 51.137,-6.6897 102.04649,-10.12397 144.45861,-10.24383 35.84478,-1.43083 65.04124,2.74635 99.81881,-2.9489 2.06514,-1.47843 18.98119,5.89442 20.07723,8.75064 1.47605,3.84653 -6.66128,7.9444 -17.6606,8.89371 -58.63154,6.74078 -120.92036,-2.33514 -181.5,4.09281 -20.14751,2.15207 -42.83985,2.50991 -64.29431,6.96063 -0.72961,86.46876 3.98088,173.48016 9.8148,258.99494 0.51973,7.7 1.45841,18.275 2.08595,23.5 1.00167,8.34006 1.22684,20.24146 1.00408,53.07132 -0.047,6.9235 -0.39962,8.86481 -1.83434,10.098 -2.66799,2.29322 -4.42785,2.56859 -8.20122,1.28328 z M 226.11492,58.645216 c 17.25727,-1.45878 25.84638,-1.19185 22.42979,-12.253937 -27.89081,-9.075432 -69.89421,-4.247606 -100.42979,-1.523032 -9.85018,0.3787 -28.07581,-0.982482 -22.78858,8.349017 2.1861,3.798422 2.27299,3.837802 9.94309,4.506882 27.86843,1.85813 62.76797,3.52871 90.84549,0.92107 z m 151.67549,17.05814 c 4.675,-0.35256 17.27369,-3.76018 19.74039,-6.35034 8.23855,-8.65084 6.20185,-24.937414 6.02237,-25.988871 -1.32906,-7.785979 -8.50167,-14.290573 -9.32667,-14.290573 -17.20839,-11.612786 -39.20737,-17.519597 -53.20317,-17.313785 -1.9329,-0.762413 -13.07717,0.05311 -14.87201,0.364262 -16.82646,4.089435 -12.52383,2.873853 -16.43831,18.711614 0.93438,20.081796 -1.67987,12.76752 6.23619,26.971683 10.78242,9.74896 6.49344,7.56617 20.57181,15.34235 17.43815,4.66841 26.55639,3.66324 41.2694,2.55366 z M 126.58345,675.52412 c -1.88016,-1.98399 -4.60437,-3.86555 -3.92006,-6.58251 4.16432,-5.26301 20.01009,-12.97202 26.20153,-16.15132 5.30557,-3.82785 11.21204,-6.23612 15.55084,-10.09979 5.70171,-4.92566 12.78501,-8.84802 17.88739,-13.58914 11.51431,-9.98893 26.86204,-23.36505 34.43904,-35.50078 4.03185,-14.40815 6.3765,-25.23012 9.84949,-43.36978 1.57041,-8.86108 3.9571,-15.43729 6.40297,-23.39401 11.2843,-36.15685 24.98511,-67.8767 51.44663,-93.84477 13.88586,7.40871 9.65577,28.38868 8.73735,37.19835 -2.78351,28.33201 -4.04003,39.8617 -14.06371,65.16286 -12.42475,16.73331 -30.42914,35.99433 -39,54.59287 0,0.3499 -1.125,2.11114 -2.5,3.91386 -1.375,1.80272 -2.5,3.96271 -2.5,4.79998 3.98116,9.48735 6.26192,15.1734 16,20.60469 16.96563,-0.75763 26.00088,-1.34441 36.34816,-9.16063 9.82719,-18.6396 14.75529,-46.68589 30.33806,-57.87456 1.54758,-1.36723 4.67464,-3.2107 6.94902,-4.0966 5.39881,-2.47351 9.9628,0.77339 11.99523,5.77194 1.52585,10.9676 -0.93604,19.2148 -5.77695,28.0282 -3.30337,6.8009 -13.8969,20.27721 -18.98554,24.71909 -4.3616,3.73337 -5.46769,8.619 -1.95131,8.619 1.05416,0 2.09166,0.525 2.30555,1.16667 0.611,1.83299 5.80984,1.29074 11.27778,-1.1763 17.8621,-7.55544 32.78066,-25.15815 41.51474,-42.4148 2.34586,-4.72302 5.38578,-8.57557 6.76672,-8.57557 4.26315,-2.09342 7.6224,-1.32089 9.96854,-1.07086 3.05018,0.52625 5.8413,2.95428 5.56319,5.22656 -0.59853,0.73936 -1.29102,3.1443 -1.53887,5.3443 -0.24785,2.2 -0.79092,4.9 -1.20681,6 -0.41996,1.11075 -0.38076,1.55538 0.0882,1 5.56081,-7.27219 15.05227,-10.96294 19.63408,-16.5 0.70662,-2.70212 2.57711,-2.47709 6.45782,0.7769 2.77206,5.67694 5.71371,16.04219 4.8175,19.81987 -0.89867,3.5806 1.82129,3.08354 6.0016,-1.09677 12.95501,-9.28592 14.38613,-7.40341 20.43329,-3.21025 2.33732,6.16402 0.97944,19.96943 -0.25294,27.00399 -3.52144,19.49481 -0.058,23.07271 13.78333,14.23865 20.70713,-16.53264 32.20885,-36.47267 43.65203,-55.14512 20.50946,-0.82703 10.41436,15.78331 16.1224,20.61273 0.71764,0 4.63215,-3.40707 8.6989,-7.57127 7.27078,-7.77399 11.65591,-12.20934 18.40539,-4.10497 6.88042,7.12324 0.25881,17.43117 3.89876,24.42257 1.08784,1.6829 5.80622,-0.74666 11.4198,-5.8802 7.30788,-5.74469 10.29956,-14.52089 21.52234,-10.60651 7.72803,9.07404 -1.88635,33.83605 -5.78682,41.81158 -2.06291,3.98923 -0.76149,4.41406 8.99266,2.93549 4.17994,-0.6336 9.72484,-1.07933 12.32202,-0.99049 2.59718,0.0888 5.23149,0.12153 5.85403,0.0727 0.74388,-0.0584 1.13481,-2.93875 1.14041,-8.4025 0.0138,-13.42287 2.25533,-16.84285 6.89424,-24.40553 7.50953,-12.1313 26.55526,-27.85859 48.2606,-39.14882 13.58368,-7.60651 20.64421,6.50715 16.38715,12.68104 -9.90083,20.94397 -34.77597,43.35787 -54.04617,48.82382 -2.36167,0.34662 -4.04133,2.88519 -1.96813,2.88519 14.58126,21.53135 44.09322,10.97733 65.7,3.85433 27.11353,-6.67771 14.09604,-2.2159 13.74737,6.41951 0.60804,4.35754 -0.26494,4.96996 -7.56077,7.06953 -26.81558,4.17046 -45.62699,12.13126 -68.80093,5.87832 -3.66617,-0.9781 -10.91152,-5.07391 -10.232,-6.17339 0.97633,-1.57973 -1.05584,3.2974 -4.23363,5.64684 -8.40914,1.87037 -24.20357,6.29269 -32.42004,6.17011 -2.43314,0.86808 -14.26748,2.42432 -14.36005,0.11265 -0.0351,-1.1 -0.44569,-4.04544 -0.91233,-6.54543 -5.38554,-14.27983 7.32123,-26.29951 7.51118,-37.54911 -3.85195,1.45827 -12.81304,14.28672 -15.86977,18.34454 -5.79188,5.20613 -11.386,17.87536 -18.9111,18.25 -4.3553,-6.7279 -2.125,-23.09273 -0.9534,-29 1.14927,-5.775 2.31245,-11.68684 2.58483,-13.13743 0.41605,-2.21567 0.0263,-2.80091 -2.43733,-3.65973 -3.38995,-1.18174 -7.0316,-0.45987 -7.0316,2.91418 -7.81052,10.82162 -14.29681,26.0971 -17.78488,33.13715 -4.66563,9.41992 -7.91093,12.92199 -11.62912,12.54921 -3.65678,-7.34639 -3.01955,-19.08099 0.3198,-26.30338 2.88539,-6.21242 3.93554,-15.5 1.75259,-15.5 -12.96602,10.87407 -27.92098,27.37691 -38.48487,40.42502 -2.63667,0.95167 -5.69395,2.11197 -6.79395,2.57845 -5.84657,1.58577 -11.45429,0.5659 -16.06775,-5.5129 -4.78439,-11.67458 -5.69262,-23.70426 -4.03682,-40.58141 2.10678,-4.22314 2.07073,-4.29846 -1.14543,-2.3927 -2.80222,1.66048 -8.25,8.47564 -8.25,10.32074 0,0.5597 -1.0125,1.84538 -2.25,2.85707 -4.1163,5.82055 -15.69775,25.1429 -22.40525,25.30573 -2.42169,0 -3.4078,-0.21999 -2.97211,-4.58581 1.98895,-18.03784 9.52041,-31.146 10.24006,-45.57037 l -5.20647,5.32809 c -2.86356,2.93045 -5.05345,5.48854 -4.86643,5.68465 0.18702,0.1961 -0.0761,0.8711 -0.58478,1.5 -9.33834,10.0149 -11.7215,32.69612 -21.33106,38.43783 l -3.3761,1.99195 -2.26099,-4.5272 c -2.52418,-5.05418 -2.87331,-14.29555 -0.98861,-26.16802 0.93518,-5.89112 0.44477,-9.639 -0.79703,-6.09112 -0.76125,2.17491 -18.85031,19.66799 -26.21415,25.35047 -6.65025,5.13181 -14.62469,8.55016 -21.86709,9.3736 -4.89463,0.34043 -17.10626,-6.06268 -21.08791,-9.77215 l -8.26601,4.30627 c -4.54631,2.36845 -10.29101,4.93032 -12.76601,5.69304 -5.75015,1.77203 -21.45807,1.34634 -26.66464,-0.0852 -12.43127,-6.0374 -16.73752,-9.30269 -22.197,-19.56574 l -4.01719,-4.69971 -3.671,3.44971 c -15.58216,13.81832 -33.68912,35.75895 -50.95023,43.9138 -2.75,1.20964 -5.86454,2.66449 -6.9212,3.23301 -12.69566,6.80749 -15.6357,11.22741 -33.11027,13.05595 z M 244.58134,555.21735 c 2.6029,-3.87955 5.50438,-7.81705 6.44775,-8.75 30.19842,-23.27798 26.76329,-57.27213 29.54186,-81.52164 0.36425,-3.78162 0.34515,-3.80473 -1.65327,-2.00023 -2.58984,2.33854 -11.80276,13.89033 -11.80276,14.79912 -18.66035,25.79271 -26.27729,66.637 -29.03444,79.11496 -1.59814,2.88582 -0.28722,5.41151 0.90138,5.41151 0.47682,0 2.99659,-3.17418 5.59948,-7.05372 z m 531.35978,95.33786 c -2.41309,-1.01401 -2.86948,-1.76109 -2.74908,-4.5 0.0794,-1.80628 -0.14564,-5.40926 -0.50009,-8.00663 -0.61195,-4.48434 -0.51267,-4.75556 1.9687,-5.37834 1.43723,-0.36072 5.1649,-0.27797 8.28371,0.1839 15.00706,6.22204 7.00406,-0.37285 30.38786,3.56538 1.021,0.91965 3.0938,1.98093 4.6063,2.35841 2.2752,0.56782 2.7476,1.22873 2.7363,3.82791 -0.022,5.12647 -1.0551,7.64159 -3.1381,7.64159 -1.0552,0 -3.016,0.71904 -4.3572,1.59786 -24.1415,2.45084 -9.3155,1.469 -37.2384,-1.29008 z"
     id="path1631" />
</svg>
